<?xml version="1.0" encoding="UTF-8"?>
<svg xmlns="http://www.w3.org/2000/svg" viewBox="0.9485294117647058 0 84.10294117647058 155.946"><path d="M 42.99999999999999 -1 V 88.08658" stroke="#b99550" stroke-width="0.7569264705882351" stroke-linecap="round" fill="none"/>
  <defs><linearGradient id="gold" x1="0.12" y1="0.05" x2="0.88" y2="0.95"><stop offset="0" stop-color="#ffeeb4"/><stop offset="0.42" stop-color="#e0b845"/><stop offset="1" stop-color="#7a5a12"/></linearGradient><radialGradient id="goldBead" cx="0.33" cy="0.28" r="0.8"><stop offset="0" stop-color="#fff6d6"/><stop offset="0.42" stop-color="#e3bb4f"/><stop offset="1" stop-color="#6b4d0e"/></radialGradient><linearGradient id="burst" x1="0.12" y1="0.05" x2="0.88" y2="0.95"><stop offset="0" stop-color="#fff6cf"/><stop offset="0.42" stop-color="#ffc23c"/><stop offset="1" stop-color="#c9600a"/></linearGradient><radialGradient id="burstBead" cx="0.33" cy="0.28" r="0.8"><stop offset="0" stop-color="#fff6cf"/><stop offset="0.42" stop-color="#ffc23c"/><stop offset="1" stop-color="#8a3f06"/></radialGradient><radialGradient id="heart" cx="0.33" cy="0.28" r="0.8"><stop offset="0" stop-color="#ffffff"/><stop offset="0.42" stop-color="#ffd865"/><stop offset="1" stop-color="#d47a09"/></radialGradient></defs>
  <path d="M43,0L43,66" fill="none" stroke="#5a4109" stroke-width="3.4"/>
  <path d="M43,0L43,66" fill="none" stroke="url(#gold)" stroke-width="2.2"/>
  <circle cx="43" cy="24" r="7.4" fill="#4a3408"/>
  <circle cx="43" cy="24" r="6.5" fill="url(#goldBead)"/>
  <circle cx="43" cy="43" r="9.4" fill="#2a1155"/>
  <circle cx="43" cy="43" r="8.4" fill="url(#burstBead)"/>
  <ellipse cx="40.1" cy="39.6" rx="2.9" ry="2" fill="#ffffff" opacity="0.8"/>
  <g fill="none" stroke-linecap="round">
    <path d="M43.00,100.00L43.00,69.00M47.00,101.07L57.50,82.89M49.93,104.00L76.77,88.50M51.00,108.00L72.00,108.00M49.93,112.00L76.77,127.50M47.00,114.93L57.50,133.11M43.00,116.00L43.00,147.00M39.00,114.93L28.50,133.11M36.07,112.00L9.23,127.50M35.00,108.00L14.00,108.00M36.07,104.00L9.23,88.50M39.00,101.07L28.50,82.89" stroke="#2a1155" stroke-width="7.4"/>
    <path d="M43.00,100.00L43.00,69.00M47.00,101.07L57.50,82.89M49.93,104.00L76.77,88.50M51.00,108.00L72.00,108.00M49.93,112.00L76.77,127.50M47.00,114.93L57.50,133.11M43.00,116.00L43.00,147.00M39.00,114.93L28.50,133.11M36.07,112.00L9.23,127.50M35.00,108.00L14.00,108.00M36.07,104.00L9.23,88.50M39.00,101.07L28.50,82.89" stroke="url(#burst)" stroke-width="4.8"/>
    <path d="M43.00,100.00L43.00,69.00M47.00,101.07L57.50,82.89M49.93,104.00L76.77,88.50M51.00,108.00L72.00,108.00M49.93,112.00L76.77,127.50M47.00,114.93L57.50,133.11M43.00,116.00L43.00,147.00M39.00,114.93L28.50,133.11M36.07,112.00L9.23,127.50M35.00,108.00L14.00,108.00M36.07,104.00L9.23,88.50M39.00,101.07L28.50,82.89" stroke="#ffffff" stroke-width="1.5" opacity="0.45" transform="translate(-0.9,-0.9)"/>
  </g>
  <circle cx="43.00" cy="63.50" r="2.9" fill="url(#gold)" stroke="#2a1155" stroke-width="1.1"/><circle cx="60.25" cy="78.12" r="2.2" fill="url(#gold)" stroke="#2a1155" stroke-width="1.1"/><circle cx="81.54" cy="85.75" r="2.9" fill="url(#gold)" stroke="#2a1155" stroke-width="1.1"/><circle cx="77.50" cy="108.00" r="2.2" fill="url(#gold)" stroke="#2a1155" stroke-width="1.1"/><circle cx="81.54" cy="130.25" r="2.9" fill="url(#gold)" stroke="#2a1155" stroke-width="1.1"/><circle cx="60.25" cy="137.88" r="2.2" fill="url(#gold)" stroke="#2a1155" stroke-width="1.1"/><circle cx="43.00" cy="152.50" r="2.9" fill="url(#gold)" stroke="#2a1155" stroke-width="1.1"/><circle cx="25.75" cy="137.88" r="2.2" fill="url(#gold)" stroke="#2a1155" stroke-width="1.1"/><circle cx="4.46" cy="130.25" r="2.9" fill="url(#gold)" stroke="#2a1155" stroke-width="1.1"/><circle cx="8.50" cy="108.00" r="2.2" fill="url(#gold)" stroke="#2a1155" stroke-width="1.1"/><circle cx="4.46" cy="85.75" r="2.9" fill="url(#gold)" stroke="#2a1155" stroke-width="1.1"/><circle cx="25.75" cy="78.12" r="2.2" fill="url(#gold)" stroke="#2a1155" stroke-width="1.1"/>
  <circle cx="43" cy="108" r="11.4" fill="#2a1155"/>
  <circle cx="43" cy="108" r="9.6" fill="url(#heart)"/>
  <ellipse cx="40" cy="104.8" rx="3.2" ry="2.2" fill="#ffffff" opacity="0.9"/>
</svg>
