<?xml version="1.0" encoding="UTF-8"?>
<svg xmlns="http://www.w3.org/2000/svg" viewBox="0 0 86 130.5">
  <defs><linearGradient id="gold" x1="0.12" y1="0.05" x2="0.88" y2="0.95"><stop offset="0" stop-color="#ffeeb4"/><stop offset="0.42" stop-color="#e0b845"/><stop offset="1" stop-color="#7a5a12"/></linearGradient><radialGradient id="goldBead" cx="0.33" cy="0.28" r="0.8"><stop offset="0" stop-color="#fff6d6"/><stop offset="0.42" stop-color="#e3bb4f"/><stop offset="1" stop-color="#6b4d0e"/></radialGradient><linearGradient id="fur" x1="0.12" y1="0.05" x2="0.88" y2="0.95"><stop offset="0" stop-color="#6b4c9e"/><stop offset="0.42" stop-color="#3a2360"/><stop offset="1" stop-color="#160d28"/></linearGradient><radialGradient id="furBead" cx="0.33" cy="0.28" r="0.8"><stop offset="0" stop-color="#a789dd"/><stop offset="0.42" stop-color="#4a2f7c"/><stop offset="1" stop-color="#1b1032"/></radialGradient><linearGradient id="membrane" x1="0.12" y1="0.05" x2="0.88" y2="0.95"><stop offset="0" stop-color="#8f6fc8"/><stop offset="0.42" stop-color="#4a2d7d"/><stop offset="1" stop-color="#1d1136"/></linearGradient></defs>
  <path d="M43,0L43,66" fill="none" stroke="#5a4109" stroke-width="3.4"/>
  <path d="M43,0L43,66" fill="none" stroke="url(#gold)" stroke-width="2.2"/>
  <circle cx="43" cy="24" r="7.4" fill="#4a3408"/>
  <circle cx="43" cy="24" r="6.5" fill="url(#goldBead)"/>
  <circle cx="43" cy="43" r="9.4" fill="#1e1330"/>
  <circle cx="43" cy="43" r="8.4" fill="url(#furBead)"/>
  <ellipse cx="40.1" cy="39.6" rx="2.9" ry="2" fill="#ffffff" opacity="0.8"/>
  <path d="M43,100C35,90 27,87 20,93C23,101 22,110 19,117C25,115 28,120 27,131C30,121 34,119 38,120Z" fill="#1e1330" stroke="#1e1330" stroke-width="2.6" stroke-linejoin="round"/><path d="M43,100C35,90 27,87 20,93C23,101 22,110 19,117C25,115 28,120 27,131C30,121 34,119 38,120Z" fill="url(#membrane)"/>
  <g transform="translate(86,0) scale(-1,1)"><path d="M43,100C35,90 27,87 20,93C23,101 22,110 19,117C25,115 28,120 27,131C30,121 34,119 38,120Z" fill="#1e1330" stroke="#1e1330" stroke-width="2.6" stroke-linejoin="round"/><path d="M43,100C35,90 27,87 20,93C23,101 22,110 19,117C25,115 28,120 27,131C30,121 34,119 38,120Z" fill="url(#membrane)"/></g>
  <path d="M35,90L32,79L40,86Z" fill="#1e1330" stroke="#1e1330" stroke-width="2" stroke-linejoin="round"/><path d="M35,90L32,79L40,86Z" fill="url(#fur)"/>
  <path d="M51,90L54,79L46,86Z" fill="#1e1330" stroke="#1e1330" stroke-width="2" stroke-linejoin="round"/><path d="M51,90L54,79L46,86Z" fill="url(#fur)"/>
  <ellipse cx="43" cy="106" rx="11" ry="22" fill="#1e1330"/>
  <ellipse cx="43" cy="106" rx="9.2" ry="20" fill="url(#fur)"/>
  <ellipse cx="39" cy="97" rx="2.5" ry="3" fill="#ffd964"/>
  <ellipse cx="47" cy="97" rx="2.5" ry="3" fill="#ffd964"/>
  <ellipse cx="39" cy="97.4" rx="1.1" ry="1.5" fill="#1e1330"/>
  <ellipse cx="47" cy="97.4" rx="1.1" ry="1.5" fill="#1e1330"/>
  <ellipse cx="39.6" cy="93" rx="2.4" ry="1.5" fill="#ffffff" opacity="0.5"/>
</svg>
